<mxfile host="Electron" modified="2024-06-20T10:51:40.124Z" agent="Mozilla/5.0 (Windows NT 10.0; Win64; x64) AppleWebKit/537.36 (KHTML, like Gecko) draw.io/24.5.3 Chrome/124.0.6367.207 Electron/30.0.6 Safari/537.36" etag="wUFNDuNqfbcKsNDEflNV" version="24.5.3" type="device">
  <diagram name="Страница — 1" id="Bxx3wv85IWiWLNRsbzjK">
    <mxGraphModel dx="942" dy="669" grid="1" gridSize="10" guides="1" tooltips="1" connect="1" arrows="1" fold="1" page="1" pageScale="1" pageWidth="1169" pageHeight="827" math="0" shadow="0">
      <root>
        <mxCell id="0" />
        <mxCell id="1" parent="0" />
        <mxCell id="17F9ALOSKu1rtU6RVuC4-6" style="edgeStyle=orthogonalEdgeStyle;rounded=0;orthogonalLoop=1;jettySize=auto;html=1;exitX=1;exitY=0.5;exitDx=0;exitDy=0;entryX=0;entryY=0.5;entryDx=0;entryDy=0;" parent="1" source="17F9ALOSKu1rtU6RVuC4-1" target="17F9ALOSKu1rtU6RVuC4-2" edge="1">
          <mxGeometry relative="1" as="geometry" />
        </mxCell>
        <mxCell id="17F9ALOSKu1rtU6RVuC4-1" value="вин код от автомобиля" style="rounded=0;whiteSpace=wrap;html=1;" parent="1" vertex="1">
          <mxGeometry x="40" y="90" width="120" height="60" as="geometry" />
        </mxCell>
        <mxCell id="17F9ALOSKu1rtU6RVuC4-9" style="edgeStyle=orthogonalEdgeStyle;rounded=0;orthogonalLoop=1;jettySize=auto;html=1;exitX=1;exitY=0.5;exitDx=0;exitDy=0;entryX=1;entryY=0.5;entryDx=0;entryDy=0;" parent="1" source="17F9ALOSKu1rtU6RVuC4-2" target="17F9ALOSKu1rtU6RVuC4-8" edge="1">
          <mxGeometry relative="1" as="geometry" />
        </mxCell>
        <UserObject label="строка поиска на сайте autodoc.ru" link="строку поиска на сайте autodoc.ru" id="17F9ALOSKu1rtU6RVuC4-2">
          <mxCell style="rounded=0;whiteSpace=wrap;html=1;" parent="1" vertex="1">
            <mxGeometry x="310" y="90" width="120" height="60" as="geometry" />
          </mxCell>
        </UserObject>
        <mxCell id="17F9ALOSKu1rtU6RVuC4-14" style="edgeStyle=orthogonalEdgeStyle;rounded=0;orthogonalLoop=1;jettySize=auto;html=1;exitX=0.5;exitY=0;exitDx=0;exitDy=0;entryX=0.5;entryY=1;entryDx=0;entryDy=0;" parent="1" source="17F9ALOSKu1rtU6RVuC4-4" target="17F9ALOSKu1rtU6RVuC4-1" edge="1">
          <mxGeometry relative="1" as="geometry" />
        </mxCell>
        <mxCell id="17F9ALOSKu1rtU6RVuC4-19" style="edgeStyle=orthogonalEdgeStyle;rounded=0;orthogonalLoop=1;jettySize=auto;html=1;exitX=0.5;exitY=1;exitDx=0;exitDy=0;entryX=0.5;entryY=0;entryDx=0;entryDy=0;" parent="1" source="17F9ALOSKu1rtU6RVuC4-4" target="17F9ALOSKu1rtU6RVuC4-18" edge="1">
          <mxGeometry relative="1" as="geometry" />
        </mxCell>
        <mxCell id="17F9ALOSKu1rtU6RVuC4-4" value="Пользователь" style="rounded=0;whiteSpace=wrap;html=1;" parent="1" vertex="1">
          <mxGeometry x="40" y="270" width="120" height="60" as="geometry" />
        </mxCell>
        <mxCell id="17F9ALOSKu1rtU6RVuC4-17" style="edgeStyle=orthogonalEdgeStyle;rounded=0;orthogonalLoop=1;jettySize=auto;html=1;exitX=0.017;exitY=0.7;exitDx=0;exitDy=0;entryX=1;entryY=0.5;entryDx=0;entryDy=0;exitPerimeter=0;" parent="1" source="17F9ALOSKu1rtU6RVuC4-8" target="17F9ALOSKu1rtU6RVuC4-4" edge="1">
          <mxGeometry relative="1" as="geometry" />
        </mxCell>
        <mxCell id="17F9ALOSKu1rtU6RVuC4-8" value="&lt;div&gt;марка, модель, год выпуска&lt;br&gt;&lt;/div&gt;Меню выбора запчастей:&lt;div&gt;&lt;div&gt;фильтр масляный&lt;/div&gt;&lt;div&gt;фильтр воздушный&lt;/div&gt;&lt;div&gt;фильтр салона&lt;/div&gt;&lt;/div&gt;" style="rounded=0;whiteSpace=wrap;html=1;" parent="1" vertex="1">
          <mxGeometry x="300" y="200" width="210" height="140" as="geometry" />
        </mxCell>
        <mxCell id="17F9ALOSKu1rtU6RVuC4-12" value="Поиск запчасти на сайте,&lt;div&gt;получение каталожного номера&lt;/div&gt;" style="rounded=0;whiteSpace=wrap;html=1;" parent="1" vertex="1">
          <mxGeometry x="305" y="490" width="170" height="60" as="geometry" />
        </mxCell>
        <mxCell id="17F9ALOSKu1rtU6RVuC4-20" style="edgeStyle=orthogonalEdgeStyle;rounded=0;orthogonalLoop=1;jettySize=auto;html=1;exitX=0.5;exitY=1;exitDx=0;exitDy=0;" parent="1" source="17F9ALOSKu1rtU6RVuC4-18" target="17F9ALOSKu1rtU6RVuC4-12" edge="1">
          <mxGeometry relative="1" as="geometry" />
        </mxCell>
        <mxCell id="17F9ALOSKu1rtU6RVuC4-18" value="Выбор запчасти из списка" style="rounded=0;whiteSpace=wrap;html=1;" parent="1" vertex="1">
          <mxGeometry x="330" y="384" width="120" height="60" as="geometry" />
        </mxCell>
        <mxCell id="17F9ALOSKu1rtU6RVuC4-21" style="edgeStyle=orthogonalEdgeStyle;rounded=0;orthogonalLoop=1;jettySize=auto;html=1;exitX=0;exitY=0.5;exitDx=0;exitDy=0;entryX=0.167;entryY=0.983;entryDx=0;entryDy=0;entryPerimeter=0;" parent="1" source="17F9ALOSKu1rtU6RVuC4-12" target="17F9ALOSKu1rtU6RVuC4-4" edge="1">
          <mxGeometry relative="1" as="geometry" />
        </mxCell>
        <mxCell id="-X1m30fA0QTxzjUKGtKb-2" style="edgeStyle=orthogonalEdgeStyle;rounded=0;orthogonalLoop=1;jettySize=auto;html=1;exitX=0;exitY=0.5;exitDx=0;exitDy=0;entryX=1;entryY=0.75;entryDx=0;entryDy=0;fillColor=#f8cecc;strokeColor=#b85450;strokeWidth=3;" edge="1" parent="1" source="-X1m30fA0QTxzjUKGtKb-1" target="17F9ALOSKu1rtU6RVuC4-12">
          <mxGeometry relative="1" as="geometry" />
        </mxCell>
        <mxCell id="-X1m30fA0QTxzjUKGtKb-1" value="Каталожный номер(Артикул?) находится на странице товара. А переход туда через js&lt;div&gt;Selenium&lt;/div&gt;" style="rounded=0;whiteSpace=wrap;html=1;fillColor=#f8cecc;strokeColor=#b85450;" vertex="1" parent="1">
          <mxGeometry x="550" y="500" width="150" height="110" as="geometry" />
        </mxCell>
      </root>
    </mxGraphModel>
  </diagram>
</mxfile>
